<svg width="14" height="14" viewBox="0 0 14 14" fill="none" xmlns="http://www.w3.org/2000/svg">
<rect x="0.183746" y="0.132187" width="13.5361" height="13.5361" rx="6.76806" fill="#CB6686"/>
<g clip-path="url(#clip0_1_398)">
<path fill-rule="evenodd" clip-rule="evenodd" d="M5.99051 4.78526L8.87462 4.78526C8.92562 4.78526 8.97452 4.80552 9.01058 4.84158C9.04664 4.87764 9.0669 4.92654 9.0669 4.97754V7.86165C9.0669 7.96784 8.98081 8.05393 8.87462 8.05393C8.76843 8.05393 8.68235 7.96784 8.68235 7.86165V5.44173L5.16509 8.95898C5.09001 9.03407 4.96826 9.03407 4.89318 8.95898C4.81809 8.88389 4.81809 8.76215 4.89318 8.68707L8.41043 5.16981L5.99051 5.16981C5.88432 5.16981 5.79823 5.08373 5.79823 4.97754C5.79823 4.87135 5.88432 4.78526 5.99051 4.78526Z" fill="white"/>
</g>
<defs>
<clipPath id="clip0_1_398">
<rect width="6.15278" height="6.15278" fill="white" transform="translate(3.87546 3.82388)"/>
</clipPath>
</defs>
</svg>
