<svg width="7" height="7" viewBox="0 0 7 7" fill="none" xmlns="http://www.w3.org/2000/svg">
<path fill-rule="evenodd" clip-rule="evenodd" d="M0.315094 3.42062C0.315094 2.25605 0.315094 1.67376 0.592602 1.25435C0.716523 1.06707 0.876915 0.906678 1.0642 0.782757C1.4836 0.505249 2.06589 0.505249 3.23047 0.505249C4.39504 0.505249 4.97733 0.505249 5.39673 0.782757C5.58402 0.906678 5.74441 1.06707 5.86833 1.25435C6.14584 1.67376 6.14584 2.25604 6.14584 3.42062V3.42062V3.42063C6.14584 4.5852 6.14584 5.16748 5.86833 5.58689C5.74441 5.77417 5.58402 5.93456 5.39673 6.05849C4.97733 6.33599 4.39504 6.33599 3.23047 6.33599H3.23047H3.23046C2.06589 6.33599 1.4836 6.33599 1.0642 6.05849C0.876915 5.93456 0.716523 5.77417 0.592602 5.58689C0.315094 5.16748 0.315094 4.5852 0.315094 3.42062ZM4.73975 3.42069C4.73975 4.25426 4.064 4.93001 3.23042 4.93001C2.39685 4.93001 1.7211 4.25426 1.7211 3.42069C1.7211 2.58711 2.39685 1.91136 3.23042 1.91136C4.064 1.91136 4.73975 2.58711 4.73975 3.42069ZM3.23042 4.41937C3.78198 4.41937 4.2291 3.97224 4.2291 3.42069C4.2291 2.86913 3.78198 2.42201 3.23042 2.42201C2.67887 2.42201 2.23175 2.86913 2.23175 3.42069C2.23175 3.97224 2.67887 4.41937 3.23042 4.41937ZM4.79949 2.19035C4.99541 2.19035 5.15424 2.03153 5.15424 1.8356C5.15424 1.63967 4.99541 1.48085 4.79949 1.48085C4.60356 1.48085 4.44473 1.63967 4.44473 1.8356C4.44473 2.03153 4.60356 2.19035 4.79949 2.19035Z" fill="white"/>
</svg>
