<svg width="7" height="7" viewBox="0 0 7 7" fill="none" xmlns="http://www.w3.org/2000/svg">
<path d="M0.596405 1.45115C0.596405 1.26417 0.662068 1.10992 0.79339 0.98839C0.924711 0.866856 1.09543 0.806091 1.30555 0.806091C1.51192 0.806091 1.67888 0.865919 1.80645 0.985585C1.93777 1.10899 2.00344 1.26978 2.00344 1.46797C2.00344 1.64747 1.93965 1.79704 1.81208 1.91671C1.68076 2.04011 1.50816 2.10181 1.29429 2.10181H1.28867C1.0823 2.10181 0.915334 2.04011 0.787762 1.91671C0.660189 1.79331 0.596405 1.63812 0.596405 1.45115ZM0.669571 6.35918V2.61225H1.91902V6.35918H0.669571ZM2.61128 6.35918H3.86072V4.26696C3.86072 4.13607 3.87573 4.03511 3.90575 3.96406C3.95827 3.83692 4.03801 3.7294 4.14494 3.64153C4.25188 3.55365 4.38601 3.50972 4.54735 3.50972C4.96759 3.50972 5.1777 3.79204 5.1777 4.3567V6.35918H6.42715V4.21086C6.42715 3.65742 6.29583 3.23767 6.03318 2.9516C5.77053 2.66553 5.42347 2.5225 4.99198 2.5225C4.50796 2.5225 4.13087 2.73004 3.86072 3.14512V3.15634H3.85509L3.86072 3.14512V2.61225H2.61128C2.61878 2.73191 2.62253 3.10398 2.62253 3.72847C2.62253 4.35296 2.61878 5.22986 2.61128 6.35918Z" fill="white"/>
</svg>
