<svg width="7" height="5" viewBox="0 0 7 5" fill="none" xmlns="http://www.w3.org/2000/svg">
<path d="M4.92992 0.0565921V0.055542H5.20332L5.30322 0.0754935C5.36981 0.0884462 5.43028 0.105421 5.48461 0.126422C5.53894 0.147424 5.59151 0.171927 5.64234 0.199928C5.69316 0.227928 5.73925 0.256459 5.78062 0.285509C5.82163 0.314213 5.85843 0.344665 5.89103 0.376866C5.92327 0.409419 5.97357 0.417819 6.04192 0.402068C6.11027 0.386317 6.18387 0.364438 6.26274 0.336438C6.3416 0.308438 6.4196 0.276935 6.49671 0.241931C6.57382 0.206927 6.62079 0.184702 6.63762 0.175251C6.65409 0.165454 6.66285 0.160203 6.6639 0.1595L6.66495 0.157925L6.67021 0.155299L6.67547 0.152674L6.68072 0.150049L6.68598 0.147424L6.68703 0.145849L6.68861 0.144799L6.69019 0.143749L6.69124 0.142173L6.6965 0.140598L6.70175 0.139548L6.70071 0.147424L6.69912 0.155299L6.6965 0.163175L6.69387 0.171051L6.69124 0.176301L6.68861 0.181551L6.68598 0.189427C6.68423 0.194677 6.68248 0.201676 6.68072 0.210429C6.67897 0.219181 6.66232 0.25418 6.63078 0.315436C6.59923 0.376693 6.5598 0.438821 6.51248 0.501825C6.46516 0.56483 6.42275 0.61243 6.38525 0.644636C6.34739 0.677189 6.32233 0.699939 6.31006 0.712891C6.29779 0.726191 6.2829 0.73844 6.26537 0.749644L6.23908 0.76697L6.23382 0.769596L6.22856 0.772221L6.22752 0.773796L6.22594 0.774846L6.22436 0.775896L6.22331 0.777471L6.21805 0.780096L6.21279 0.782721L6.21175 0.784297L6.21016 0.785347L6.20859 0.786397L6.20753 0.787972L6.20649 0.789547L6.2049 0.790597L6.20333 0.791647L6.20228 0.793222H6.22856L6.37578 0.76172C6.47392 0.740718 6.56768 0.715343 6.65706 0.685589L6.79902 0.638336L6.81479 0.633085L6.82268 0.63046L6.82794 0.627835L6.8332 0.62521L6.83845 0.622584L6.84371 0.619959L6.85423 0.618384L6.86474 0.617334V0.627835L6.86211 0.628885L6.85948 0.63046L6.85844 0.632035L6.85685 0.633085L6.85528 0.634135L6.85423 0.63571L6.85318 0.637286L6.8516 0.638336L6.85002 0.639386L6.84897 0.640961L6.84792 0.642536L6.84634 0.643586L6.84371 0.648836L6.84108 0.654087L6.8395 0.655137C6.8388 0.656187 6.81655 0.685936 6.77273 0.744394C6.72892 0.803198 6.70526 0.832947 6.70175 0.83365C6.69825 0.8347 6.69334 0.839951 6.68703 0.849401C6.68108 0.859199 6.64392 0.89823 6.57557 0.966485C6.50722 1.03474 6.44028 1.09547 6.37473 1.14867C6.30884 1.20223 6.27554 1.26803 6.27484 1.34609C6.27379 1.42379 6.26975 1.51165 6.26274 1.60966C6.25573 1.70767 6.24259 1.81355 6.22331 1.92731C6.20403 2.04107 6.17424 2.1697 6.13393 2.31321C6.09362 2.45672 6.04455 2.59673 5.98671 2.73324C5.92888 2.86975 5.86841 2.99226 5.80532 3.10077C5.74223 3.20928 5.6844 3.30116 5.63182 3.37642C5.57924 3.45167 5.52579 3.52255 5.47146 3.58906C5.41713 3.65556 5.34844 3.73047 5.26537 3.81377C5.18194 3.89673 5.13638 3.94223 5.12867 3.95028C5.12061 3.95799 5.08626 3.98669 5.02561 4.03639C4.96533 4.08644 4.90048 4.13649 4.83108 4.18655C4.76203 4.23626 4.69859 4.27774 4.64075 4.31099C4.58292 4.34424 4.51317 4.38221 4.4315 4.42492C4.35018 4.46797 4.2622 4.50788 4.16756 4.54463C4.07292 4.58138 3.97303 4.61551 3.86788 4.64701C3.76272 4.67851 3.66108 4.70302 3.56293 4.72052C3.46479 4.73802 3.3535 4.7529 3.22907 4.76514L3.04242 4.78352V4.78615H2.70067V4.78352L2.65598 4.7809C2.62619 4.77915 2.60166 4.77739 2.58238 4.77565C2.5631 4.7739 2.49037 4.76427 2.36418 4.74677C2.238 4.72927 2.13898 4.71176 2.06713 4.69426C1.99528 4.67676 1.88837 4.64351 1.74641 4.59451C1.60445 4.54551 1.483 4.49597 1.38205 4.44592C1.28146 4.39622 1.21837 4.36471 1.19278 4.35141C1.16754 4.33846 1.13915 4.32236 1.1076 4.30311L1.06028 4.27423L1.05924 4.27266L1.05766 4.27161L1.05608 4.27056L1.05503 4.26898L1.04977 4.26636L1.04451 4.26373L1.04347 4.26216L1.04188 4.26111L1.04031 4.26006L1.03925 4.25848L1.03821 4.25691L1.03663 4.25586H1.034V4.24536L1.03925 4.24641L1.04451 4.24798L1.06817 4.25061C1.08394 4.25235 1.12688 4.25498 1.19698 4.25848C1.26709 4.26198 1.34157 4.26198 1.42043 4.25848C1.4993 4.25498 1.57992 4.2471 1.66229 4.23486C1.74466 4.22261 1.84193 4.2016 1.95409 4.17185C2.06625 4.1421 2.1693 4.10675 2.26324 4.06579C2.35683 4.02449 2.42342 3.99369 2.46303 3.97339C2.50229 3.95343 2.56222 3.91633 2.64284 3.86208L2.76377 3.7807L2.76482 3.77912L2.7664 3.77807L2.76798 3.77702L2.76902 3.77545L2.77008 3.77387L2.77165 3.77282L2.77324 3.77177L2.77428 3.7702L2.77954 3.76862L2.7848 3.76757L2.78585 3.76232L2.78743 3.75707L2.78901 3.75602L2.79005 3.75444L2.74799 3.75182C2.71995 3.75007 2.69279 3.74832 2.6665 3.74657C2.64021 3.74482 2.59903 3.73694 2.54294 3.72294C2.48687 3.70894 2.4264 3.68794 2.36156 3.65994C2.29671 3.63194 2.23362 3.59868 2.17228 3.56018C2.11094 3.52168 2.0666 3.48965 2.03926 3.4641C2.01227 3.43889 1.97722 3.40319 1.93411 3.35699C1.89135 3.31044 1.85419 3.26266 1.82265 3.21365C1.7911 3.16465 1.76096 3.10812 1.73222 3.04407L1.68858 2.94851L1.68595 2.94063L1.68332 2.93276L1.68174 2.92751L1.68069 2.92226L1.68858 2.92331L1.69646 2.92488L1.7543 2.93276C1.79286 2.93801 1.85332 2.93976 1.93569 2.93801C2.01806 2.93626 2.07501 2.93276 2.10656 2.92751C2.13811 2.92226 2.15738 2.91875 2.16439 2.91701L2.17491 2.91438L2.18805 2.91176L2.2012 2.90913L2.20225 2.90756L2.20383 2.90651L2.20541 2.90546L2.20645 2.90388L2.19594 2.90126L2.18542 2.89863L2.17491 2.896L2.16439 2.89338L2.15388 2.89075C2.14687 2.88901 2.1346 2.8855 2.11707 2.88025C2.09955 2.875 2.05223 2.85575 1.97512 2.8225C1.89801 2.78925 1.83667 2.75687 1.7911 2.72537C1.74542 2.69377 1.70186 2.65922 1.66071 2.62193C1.6197 2.58413 1.57466 2.53548 1.52559 2.47597C1.47652 2.41647 1.43271 2.34734 1.39415 2.26858C1.35559 2.18983 1.32667 2.11457 1.30739 2.04282C1.28819 1.97148 1.27552 1.89855 1.26954 1.82492L1.26008 1.71467L1.26533 1.71572L1.27059 1.71729L1.27585 1.71992L1.28111 1.72254L1.28636 1.72517L1.29162 1.72779L1.37312 1.76455C1.42745 1.78905 1.49492 1.81005 1.57554 1.82755C1.65616 1.84505 1.70435 1.85468 1.72012 1.85643L1.74378 1.85905H1.7911L1.79005 1.85748L1.78847 1.85643L1.78689 1.85538L1.78584 1.8538L1.7848 1.85223L1.78321 1.85118L1.78164 1.85013L1.78058 1.84855L1.77533 1.84593L1.77007 1.8433L1.76902 1.84173L1.76744 1.84068L1.76586 1.83963L1.76481 1.83805L1.75955 1.83543L1.7543 1.8328L1.75325 1.83123C1.7522 1.83052 1.73712 1.81932 1.70803 1.79762C1.67928 1.77557 1.64914 1.74705 1.6176 1.71204C1.58605 1.67704 1.5545 1.64028 1.52296 1.60178C1.49135 1.56319 1.46321 1.52191 1.43884 1.4784C1.4143 1.43465 1.38836 1.37899 1.36102 1.31144C1.33404 1.24423 1.31353 1.1765 1.29951 1.10825C1.28549 1.03999 1.2776 0.972612 1.27585 0.906106C1.2741 0.839599 1.27585 0.782721 1.28111 0.735468C1.28636 0.688214 1.29688 0.634834 1.31265 0.575331C1.32843 0.515828 1.35121 0.452824 1.381 0.386317L1.42569 0.286559L1.42832 0.278684L1.43095 0.270808L1.43253 0.269758L1.43358 0.268183L1.43463 0.266608L1.43621 0.265558L1.43779 0.266608L1.43884 0.268183L1.43989 0.269758L1.44147 0.270808L1.44305 0.271858L1.44409 0.273433L1.44515 0.275008L1.44672 0.276059L1.44935 0.281309L1.45198 0.286559L1.45356 0.287609L1.45461 0.289184L1.52559 0.36794C1.57291 0.420444 1.62899 0.479075 1.69383 0.543829C1.75868 0.608582 1.79461 0.642184 1.80161 0.644636C1.80863 0.647435 1.81739 0.655483 1.8279 0.668788C1.83842 0.681741 1.87347 0.712718 1.93306 0.76172C1.99265 0.810722 2.07063 0.867605 2.16702 0.932358C2.26342 0.997111 2.37032 1.06099 2.48774 1.124C2.60516 1.187 2.73135 1.24388 2.86629 1.29463C3.00124 1.34539 3.09588 1.37864 3.1502 1.39439C3.20454 1.41014 3.29742 1.43027 3.42886 1.45477C3.5603 1.47928 3.65932 1.49503 3.72592 1.50203C3.79252 1.50902 3.83809 1.51305 3.86262 1.5141L3.89942 1.51515L3.89838 1.50728L3.89679 1.4994L3.88628 1.43377C3.87927 1.39002 3.87576 1.32876 3.87576 1.25001C3.87576 1.17125 3.8819 1.09862 3.89416 1.03212C3.90643 0.965608 3.92484 0.89823 3.94937 0.829975C3.97391 0.76172 3.99792 0.706937 4.0214 0.665638C4.04524 0.624685 4.07643 0.577956 4.11498 0.525452C4.15354 0.472948 4.20349 0.418696 4.26483 0.36269C4.32617 0.306684 4.39627 0.256805 4.47513 0.213054C4.554 0.169302 4.62673 0.136046 4.69333 0.113296C4.75993 0.0905464 4.81601 0.0756667 4.86157 0.068668C4.90714 0.0616692 4.92992 0.0576421 4.92992 0.0565921Z" fill="white"/>
</svg>
