<svg width="8" height="5" viewBox="0 0 8 5" fill="none" xmlns="http://www.w3.org/2000/svg">
<path d="M4.25882 4.68171L2.94296 4.65712C2.51691 4.64855 2.0898 4.66566 1.6721 4.57687C1.03669 4.44422 0.99168 3.7938 0.944577 3.24822C0.879674 2.48121 0.9048 1.70027 1.02728 0.93966C1.09643 0.512876 1.36854 0.258211 1.78935 0.230499C3.2099 0.129927 4.63989 0.141846 6.05729 0.188766C6.20698 0.193068 6.35771 0.216577 6.50531 0.243337C7.23393 0.373855 7.2517 1.11092 7.29893 1.7314C7.34604 2.35828 7.32615 2.98837 7.23612 3.61098C7.16389 4.12648 7.0257 4.55878 6.4425 4.60051C5.71179 4.65509 4.99785 4.69902 4.26509 4.68503C4.26512 4.68171 4.26091 4.68171 4.25882 4.68171ZM3.48522 3.37661C4.03587 3.05351 4.57601 2.73581 5.12352 2.41488C4.57184 2.09179 4.03272 1.77408 3.48522 1.45316V3.37661Z" fill="white"/>
</svg>
